<svg width="24" height="24" viewBox="0 0 24 24" xmlns="http://www.w3.org/2000/svg">
    <path d="M24 22.154V24H0v-1.846h24zM8.308 18.462v1.846H6.462v-1.846h1.846zm9.23 0v1.846h-1.846v-1.846h1.846zm-9.23-3.693v1.846H6.462V14.77h1.846zm9.23 0v1.846h-1.846V14.77h1.846zm4.76-10.673 1.558 1.039-3.693 5.538-.576.837-.78-.635L15 7.817l-4.067 6.52-.49.807-.808-.519-4.847-3.23-3.144 3.951-1.442-1.154 3.692-4.615.52-.664.72.462 4.76 3.173 4.096-6.577.548-.865.808.634 3.808 3.058 3.144-4.702zm-4.76 6.98v1.847h-1.846v-1.846h1.846zm-9.23-3.691V9.23H6.462V7.385h1.846zm0-3.693v1.846H6.462V3.692h1.846zm9.23 0v1.846h-1.846V3.692h1.846zM8.308 0v1.846H6.462V0h1.846zm9.23 0v1.846h-1.846V0h1.846z" fill="#286CE2" fill-rule="evenodd"/>
</svg>
