<svg width="16" height="16" viewBox="0 0 16 16" xmlns="http://www.w3.org/2000/svg">
    <path d="m7.917 0-.063.02L.521 1.647 0 1.77v12.458l.52.125 7.334 1.625.063.021h1.416v-2H16V2H9.333V0H7.917zM8 1.354v13.292l-6.667-1.459V2.813L8 1.353zm1.333 1.98h5.334v9.333H9.333v-1.334h1.334V10H9.333v-.667h1.334V8H9.333v-.667h1.334V6H9.333v-.667h1.334V4H9.333v-.667zm2 .666v1.333H14V4h-2.667zm-4.562.667-1.521.187-.833 1.792a9.342 9.342 0 0 0-.188.583h-.02a3.977 3.977 0 0 0-.167-.562l-.417-1.542-1.417.167-.062.041L3.333 8 2 10.667l1.438.166.583-1.646c.07-.208.127-.377.146-.479h.02c.04.216.066.378.105.459l.896 1.958 1.625.208L5.042 7.98 6.77 4.667zM11.333 6v1.333H14V6h-2.667zm0 2v1.333H14V8h-2.667zm0 2v1.333H14V10h-2.667z" fill="#286CE2" fill-rule="evenodd"/>
</svg>
