<svg width="24" height="24" viewBox="0 0 24 24" xmlns="http://www.w3.org/2000/svg">
    <path d="m11.875 0-.094.031-11 2.438L0 2.656v18.688l.781.187 11 2.438.094.031H14v-3h10V3H14V0h-2.125zM12 2.031V21.97L2 19.78V4.22L12 2.03zM14 5h8v14h-8v-2h2v-2h-2v-1h2v-2h-2v-1h2V9h-2V8h2V6h-2V5zm3 1v2h4V6h-4zm-6.844 1-2.281.281-1.25 2.688c-.133.386-.23.68-.281.875h-.032a5.966 5.966 0 0 0-.25-.844l-.625-2.313-2.125.25L3.22 8 5 12l-2 4 2.156.25.875-2.469c.106-.312.192-.566.219-.719h.031c.059.325.098.567.157.688l1.343 2.938L10.22 17l-2.656-5.031L10.155 7zM17 9v2h4V9h-4zm0 3v2h4v-2h-4zm0 3v2h4v-2h-4z" fill="#108808" fill-rule="evenodd"/>
</svg>
