<svg width="24" height="25" viewBox="0 0 24 25" xmlns="http://www.w3.org/2000/svg" xmlns:xlink="http://www.w3.org/1999/xlink">
    <defs>
        <path d="M5.236 0c.482 0 .957.173 1.353.49l.057.029L10.36 4.35l.086.087-.029.029c.817.76.803 2.05.029 2.824L8.604 9.135c.284.648 1.054 2.305 2.562 3.746a14.9 14.9 0 0 0 3.77 2.594l1.843-1.845c.762-.763 2.115-.763 2.878 0l.029.058 3.742 3.746c.763.764.763 2.09 0 2.853l-2.907 2.91a3.303 3.303 0 0 1-3.195.634h-.03c-2.162-.846-6.533-2.766-10.448-6.685C2.948 13.241.951 8.922.17 6.686v-.03a2.892 2.892 0 0 1 .777-3.112l-.029-.028L3.797.548l.029-.03.057-.028C4.28.173 4.753 0 5.236 0zm0 1.844a.322.322 0 0 0-.201.087L2.242 4.784l-.057.057c-.328.281-.428.836-.288 1.21.698 2.01 2.601 6.15 6.246 9.798 3.616 3.62 7.671 5.403 9.758 6.225.536.18.986.104 1.41-.26l2.822-2.824c.158-.158.158-.1 0-.26l-3.771-3.774c-.159-.159-.13-.159-.288 0l-2.735 2.737-.575-.259s-2.523-1.07-4.663-3.026l-.202-.173C7.676 12.114 6.618 9.28 6.618 9.28l-.202-.576.432-.404 2.303-2.305c.111-.112.05-.209.057-.202l-3.77-3.861a.322.322 0 0 0-.202-.087z" id="kl4s7lk40a"/>
    </defs>
    <use fill="#FFF" xlink:href="#kl4s7lk40a" transform="translate(0 .3)" fill-rule="evenodd"/>
</svg>
